<?xml version="1.0" standalone="no"?>
<!DOCTYPE svg PUBLIC "-//W3C//DTD SVG 20010904//EN"
 "http://www.w3.org/TR/2001/REC-SVG-20010904/DTD/svg10.dtd">
<svg version="1.0" xmlns="http://www.w3.org/2000/svg"
 width="199.000000pt" height="301.000000pt" viewBox="0 0 199.000000 301.000000"
 preserveAspectRatio="xMidYMid meet">

<g transform="translate(0.000000,301.000000) scale(0.100000,-0.100000)"
fill="#000000" stroke="none">
<path d="M2 1498 l3 -1493 992 -3 993 -2 0 1495 0 1495 -995 0 -995 0 2 -1492z
m1956 0 l2 -1438 -950 0 -950 0 0 1433 c0 789 3 1437 7 1440 3 4 430 6 947 5
l941 -3 3 -1437z"/>
<path d="M898 2674 c-4 -3 -27 -8 -52 -10 -75 -7 -172 -57 -232 -122 -30 -31
-54 -62 -54 -69 0 -7 -10 -31 -21 -53 -15 -28 -23 -65 -26 -118 -4 -71 -1 -88
28 -144 5 -10 9 -26 9 -36 0 -22 83 -116 93 -106 4 4 7 2 7 -4 0 -7 7 -12 15
-12 9 0 12 -6 9 -15 -4 -10 0 -15 13 -15 10 0 26 -9 36 -21 12 -14 24 -18 39
-13 12 4 18 2 14 -4 -9 -14 18 -33 74 -52 33 -11 53 -13 59 -7 7 7 19 2 35
-16 17 -18 35 -27 56 -27 16 0 30 -5 30 -11 0 -5 4 -8 9 -4 5 3 13 0 16 -6 4
-6 18 -8 32 -4 15 3 22 2 18 -4 -3 -6 15 -20 41 -31 176 -80 217 -162 151
-298 -28 -58 -199 -106 -292 -81 -22 6 -51 13 -65 16 -29 5 -86 32 -109 50 -9
7 -35 26 -58 42 -63 45 -72 65 -76 164 -2 48 -8 92 -14 98 -16 16 -71 1 -75
-19 -5 -23 12 -85 26 -94 7 -5 5 -8 -6 -8 -10 0 -18 -7 -18 -16 0 -13 7 -15
30 -11 28 6 28 5 13 -12 -9 -11 -23 -17 -32 -14 -14 5 -14 3 1 -12 16 -18 19
-18 36 -2 26 23 36 21 15 -3 -10 -11 -24 -20 -33 -20 -12 -1 -12 -3 3 -14 9
-7 17 -21 17 -30 0 -9 5 -16 10 -16 6 0 10 -6 10 -13 0 -22 38 -39 60 -27 24
13 24 -7 0 -28 -8 -8 -10 -11 -4 -8 6 3 21 -5 33 -18 12 -13 43 -32 68 -41 38
-15 47 -15 54 -4 7 11 9 9 9 -6 1 -20 1 -20 15 -1 13 17 13 22 -3 39 -16 18
-16 19 3 15 16 -3 19 -10 17 -38 -3 -40 9 -50 63 -49 39 0 40 0 15 14 -18 10
-27 10 -32 2 -9 -15 -18 -5 -24 27 -2 14 0 26 6 26 5 0 10 -7 10 -16 0 -9 8
-14 18 -13 42 4 52 -1 52 -26 0 -22 4 -25 39 -25 22 0 42 5 44 13 4 9 7 9 15
-1 10 -15 62 0 62 19 0 8 4 8 14 0 11 -10 21 -8 47 6 17 10 42 24 54 30 28 16
58 60 50 73 -3 6 -2 10 4 10 15 0 41 54 41 84 0 20 -4 23 -22 20 l-23 -5 23
10 c12 6 22 19 22 30 0 16 -5 19 -25 15 -21 -4 -25 0 -25 18 0 17 3 19 9 10 5
-8 17 -12 26 -10 16 3 17 5 4 18 -8 8 -15 26 -16 39 -1 13 -11 30 -22 38 -12
8 -21 21 -21 30 0 11 -7 14 -25 11 -14 -3 -28 -1 -31 3 -3 5 0 9 6 9 6 0 9 4
5 10 -3 5 -13 6 -21 3 -11 -4 -15 0 -12 13 2 13 -3 19 -16 19 -11 0 -21 6 -24
13 -2 6 -14 12 -27 12 -12 0 -28 7 -35 15 -7 8 -18 15 -24 15 -6 0 -5 -4 3 -9
10 -6 10 -10 1 -16 -9 -6 -9 -9 1 -16 7 -4 10 -11 6 -15 -9 -10 -44 27 -48 51
-5 24 -29 32 -29 10 0 -9 -6 -15 -12 -12 -7 2 -12 12 -12 21 1 9 1 16 0 16 0
0 -22 7 -48 15 -41 12 -48 12 -48 0 0 -9 6 -12 16 -8 14 5 15 3 5 -15 -21 -39
-36 -23 -34 36 1 7 -4 11 -11 9 -6 -2 -10 -14 -8 -25 5 -35 -18 -25 -25 10 -6
29 -7 30 -14 10 -9 -24 -27 -30 -26 -9 1 47 -4 58 -34 64 -17 3 -33 12 -36 20
-5 11 -8 12 -13 2 -6 -9 -12 -9 -24 3 -9 9 -24 14 -34 11 -12 -3 -22 2 -25 10
-4 10 -13 13 -26 10 -14 -3 -23 0 -27 11 -3 9 -12 16 -20 16 -16 0 -19 37 -5
59 15 23 34 1 27 -31 -5 -26 -4 -29 9 -18 8 7 13 15 12 19 -22 49 -30 58 -53
55 -15 -1 -24 3 -24 12 0 8 -4 14 -10 14 -19 0 -10 39 11 45 13 4 18 12 15 22
-3 8 -6 19 -6 24 0 6 -5 7 -11 3 -6 -3 -3 5 6 20 11 16 16 38 13 57 -3 20 0
33 9 36 7 3 13 11 13 19 0 7 11 25 25 40 14 15 25 33 25 40 0 8 7 14 15 14 8
0 15 4 15 9 0 5 -7 11 -15 15 -17 6 -21 36 -5 36 6 0 10 -4 10 -10 0 -13 29
-13 69 1 38 13 43 38 6 31 -14 -2 -25 0 -25 5 0 20 13 21 53 6 23 -8 55 -15
72 -14 34 2 68 29 61 48 -3 7 -1 13 5 13 16 0 23 -31 8 -41 -10 -6 -2 -9 24
-9 20 0 37 5 37 11 0 5 -4 7 -10 4 -5 -3 -10 -1 -10 4 0 13 10 14 29 2 8 -5
10 -14 6 -22 -6 -9 -3 -11 10 -6 9 4 23 3 29 -1 18 -15 66 -23 66 -12 0 5 5
10 10 10 6 0 10 -7 10 -16 0 -14 55 -41 74 -36 4 2 14 -3 22 -9 10 -8 14 -8
14 0 0 6 5 11 10 11 7 0 7 -6 0 -19 -8 -16 -6 -21 10 -26 11 -3 20 -10 20 -15
0 -5 6 -7 14 -4 7 3 16 -2 20 -11 4 -11 12 -15 22 -11 12 4 15 2 10 -9 -5 -15
5 -21 17 -8 4 3 -1 15 -10 25 -14 15 -14 19 -3 16 12 -2 16 13 18 80 3 78 2
83 -21 93 -28 13 -67 -2 -67 -25 0 -24 -26 -25 -71 -4 -86 40 -103 46 -179 53
-30 3 -73 7 -95 11 -22 3 -43 2 -47 -2z m-25 -62 c-3 -13 -13 -22 -24 -22 -26
0 -24 29 4 39 27 11 28 10 20 -17z m190 -21 c-9 -12 -23 18 -16 35 6 17 8 17
13 -6 4 -14 5 -27 3 -29z m-337 -28 c-11 -11 -17 4 -9 23 7 18 8 18 11 1 2
-10 1 -21 -2 -24z m-86 -23 c0 -5 -5 -10 -11 -10 -5 0 -7 5 -4 10 3 6 8 10 11
10 2 0 4 -4 4 -10z m660 -20 c0 -5 -4 -10 -10 -10 -5 0 -10 5 -10 10 0 6 5 10
10 10 6 0 10 -4 10 -10z m-735 -120 c3 -5 -1 -10 -9 -10 -9 0 -16 5 -16 10 0
6 4 10 9 10 6 0 13 -4 16 -10z m5 -30 c0 -5 -4 -10 -10 -10 -5 0 -10 5 -10 10
0 6 5 10 10 10 6 0 10 -4 10 -10z m20 -20 c0 -13 -28 -25 -38 -16 -3 4 0 11 8
16 20 13 30 12 30 0z m-33 -76 c-3 -4 -2 -15 4 -25 6 -13 6 -19 -1 -19 -5 0
-10 7 -10 15 0 8 -8 15 -17 15 -15 0 -16 2 -3 10 17 11 37 14 27 4z m204 -317
c-8 -8 -11 -8 -11 1 0 7 -7 12 -15 12 -17 0 -18 2 -9 25 6 14 9 13 26 -5 15
-16 17 -25 9 -33z m69 2 c7 -11 9 -23 6 -27 -3 -3 -6 0 -6 6 0 7 -8 12 -18 12
-10 0 -19 7 -19 15 0 22 25 18 37 -6z m-4 -41 c4 -6 3 -8 -4 -4 -5 3 -13 0
-15 -6 -3 -8 -6 -6 -6 5 -1 19 14 23 25 5z m359 -98 c3 -5 1 -10 -4 -10 -6 0
-11 -10 -12 -22 0 -22 -1 -22 -8 -3 -13 33 7 62 24 35z m35 -41 c0 -6 -4 -7
-10 -4 -5 3 -10 11 -10 16 0 6 5 7 10 4 6 -3 10 -11 10 -16z m40 -19 c0 -5 -7
-10 -16 -10 -8 0 -12 5 -9 10 3 6 10 10 16 10 5 0 9 -4 9 -10z m-590 -39 c0
-17 -18 -21 -24 -6 -3 9 0 15 9 15 8 0 15 -4 15 -9z m650 -1 c0 -5 -10 -10
-22 -9 -22 0 -22 1 -3 9 11 5 21 9 23 9 1 1 2 -3 2 -9z m-665 -50 c-3 -5 -10
-10 -16 -10 -5 0 -9 5 -9 10 0 6 7 10 16 10 8 0 12 -4 9 -10z m20 -30 c3 -5
-1 -10 -9 -10 -9 0 -16 5 -16 10 0 6 4 10 9 10 6 0 13 -4 16 -10z m35 -125
c32 -17 40 -35 15 -35 -8 0 -15 4 -15 9 0 5 -9 13 -20 16 -11 3 -20 11 -20 16
0 12 6 11 40 -6z m83 -92 c-3 -14 -1 -23 7 -23 6 0 8 -5 5 -10 -12 -19 -31 14
-31 52 0 31 2 34 12 20 7 -9 10 -27 7 -39z m37 -3 c0 -5 -7 -10 -16 -10 -8 0
-12 5 -9 10 3 6 10 10 16 10 5 0 9 -4 9 -10z m454 -33 c-9 -5 -18 -6 -21 -3
-4 3 -1 6 5 6 7 0 12 8 12 18 0 14 2 15 10 2 6 -10 4 -17 -6 -23z m-433 0 c-1
-12 -15 -9 -19 4 -3 6 1 10 8 8 6 -3 11 -8 11 -12z m289 -41 c0 -3 -4 -8 -10
-11 -5 -3 -10 -1 -10 4 0 6 5 11 10 11 6 0 10 -2 10 -4z"/>
<path d="M1424 2642 c-13 -8 -24 -61 -14 -67 4 -2 6 -21 5 -42 -2 -21 2 -41 9
-46 7 -5 5 -11 -7 -18 -15 -9 -16 -13 -6 -26 10 -12 10 -16 -2 -24 -8 -5 -9
-9 -3 -9 7 0 15 -7 18 -16 3 -8 2 -12 -4 -9 -15 9 -12 -27 4 -47 7 -10 19 -18
25 -18 7 0 9 -5 6 -10 -4 -6 -10 -8 -14 -6 -4 3 -13 1 -21 -5 -12 -7 -12 -9 3
-9 10 0 16 -4 12 -9 -7 -12 15 -26 24 -15 3 5 13 9 21 9 13 0 15 25 16 160 2
205 0 215 -34 215 -15 0 -32 -4 -38 -8z m56 -267 c0 -8 -2 -15 -4 -15 -2 0 -6
7 -10 15 -3 8 -1 15 4 15 6 0 10 -7 10 -15z m-25 -18 c12 -10 15 -16 6 -21 -6
-4 -18 -1 -26 8 -27 27 -13 36 20 13z"/>
<path d="M891 2552 c-1 -8 -8 -11 -18 -8 -10 3 -25 1 -33 -4 -13 -9 -13 -10 0
-11 8 -1 21 -1 27 0 8 1 10 -5 7 -14 -8 -19 -60 -17 -56 3 2 14 -17 16 -38 2
-12 -8 -12 -12 -2 -18 16 -10 -11 -36 -46 -45 -19 -4 -21 -3 -11 9 6 8 18 14
25 14 8 0 14 7 14 15 0 12 -3 13 -12 5 -7 -5 -25 -19 -39 -30 -50 -37 -90
-138 -64 -160 8 -7 15 -20 15 -29 0 -14 2 -14 10 -1 8 11 9 8 5 -11 -5 -20 0
-33 19 -52 14 -15 26 -38 26 -52 0 -28 -3 -29 -31 -15 -12 7 -19 7 -19 1 0
-17 33 -29 73 -26 20 2 37 -1 37 -6 0 -5 -8 -9 -17 -10 -12 -1 -10 -4 7 -9 17
-5 19 -8 8 -9 -11 -1 -18 -9 -18 -21 0 -22 1 -23 26 -13 16 6 16 7 1 12 -13 5
-12 8 8 18 23 10 25 10 19 -14 -5 -18 -3 -24 7 -22 8 1 25 -3 39 -8 22 -10 23
-12 7 -18 -17 -7 -17 -8 0 -21 10 -7 25 -13 33 -14 9 0 11 3 5 8 -5 4 -11 15
-13 24 -2 16 0 16 29 4 34 -14 54 -40 44 -56 -3 -6 -1 -10 4 -10 6 0 11 5 11
10 0 6 4 10 10 10 5 0 7 -7 4 -15 -5 -11 1 -15 17 -15 17 0 20 3 10 9 -8 6
-11 16 -6 31 l7 23 24 -28 c13 -15 26 -37 30 -48 6 -20 7 -20 20 -3 9 14 20
16 43 11 17 -4 31 -11 31 -16 0 -6 8 -5 20 1 26 14 40 6 33 -19 -3 -12 -11
-17 -19 -14 -8 3 -14 0 -14 -5 0 -6 10 -14 22 -18 12 -3 28 -13 36 -20 7 -8
23 -14 34 -14 20 0 21 1 3 20 -10 11 -28 20 -39 20 -20 1 -20 1 -2 15 17 13
21 12 35 -4 9 -10 22 -16 29 -13 9 3 12 -6 9 -32 l-4 -35 41 2 c30 1 41 -2 42
-13 3 -42 3 -43 19 -30 13 11 15 8 15 -14 0 -14 5 -26 10 -26 7 0 7 -6 0 -20
-13 -25 -2 -26 16 -3 7 10 16 14 21 10 7 -8 -17 -32 -40 -40 -6 -2 -7 -11 -3
-23 8 -19 8 -19 16 1 5 11 9 14 9 7 1 -7 11 -17 24 -22 12 -5 16 -9 10 -9 -7
-1 -13 -7 -13 -15 0 -7 -9 -20 -20 -27 -16 -11 -21 -28 -25 -74 -2 -37 -8 -59
-15 -57 -6 1 -9 -2 -5 -8 3 -5 -3 -20 -14 -32 -12 -12 -21 -28 -21 -35 0 -7
-5 -13 -11 -13 -5 0 -27 -13 -47 -29 -20 -16 -48 -32 -62 -36 -14 -4 -31 -12
-39 -18 -7 -7 -27 -10 -43 -8 -20 2 -28 -1 -24 -8 5 -7 -3 -9 -24 -5 -27 6
-30 4 -23 -12 6 -18 6 -18 -15 -1 -12 11 -32 17 -49 16 -15 -2 -33 -1 -38 2
-6 3 -25 6 -42 7 -25 2 -33 -2 -34 -15 -1 -12 -3 -9 -8 7 -8 27 -63 45 -92 29
-13 -6 -18 -4 -22 12 -4 15 -12 19 -33 17 -21 -2 -29 2 -32 17 -4 19 -57 75
-71 75 -4 0 -13 12 -19 26 -11 22 -14 24 -27 10 -20 -20 -20 -77 0 -70 8 4 12
10 9 15 -3 5 -1 9 4 9 10 0 22 -23 22 -42 0 -6 -10 -8 -22 -5 -22 6 -22 5 -4
-8 17 -13 18 -18 6 -39 -8 -16 -18 -22 -28 -19 -11 5 -13 3 -6 -8 5 -8 9 -27
9 -44 0 -25 4 -30 28 -33 35 -4 57 13 57 44 0 29 21 31 64 5 33 -20 136 -57
149 -53 4 1 16 -2 27 -8 10 -5 56 -12 102 -16 95 -6 212 17 287 57 58 31 135
110 162 166 25 51 41 167 25 183 -7 7 -6 10 2 10 7 0 12 7 12 16 0 8 -4 13 -8
10 -5 -3 -7 7 -4 23 6 42 -77 189 -100 175 -4 -3 -7 -1 -6 3 5 17 -65 73 -84
67 -12 -3 -18 -1 -16 7 2 7 -2 13 -9 14 -7 0 -18 6 -24 13 -7 6 -19 12 -26 12
-7 0 -13 4 -13 8 0 7 -57 32 -73 32 -3 0 -3 -8 0 -17 6 -16 5 -16 -10 -4 -9 7
-17 20 -17 27 0 8 -8 14 -19 14 -10 0 -43 9 -72 21 -30 12 -72 28 -94 36 -138
52 -228 126 -240 194 -16 92 42 176 140 204 64 19 175 18 225 -2 142 -57 200
-111 208 -195 6 -58 27 -60 27 -2 0 37 2 39 35 45 19 4 30 7 23 8 -7 0 -10 8
-7 16 5 12 0 12 -28 5 -40 -12 -38 -12 -38 -1 0 5 14 13 32 16 l32 7 -23 19
c-13 11 -29 19 -36 19 -7 0 -16 6 -18 13 -3 6 -3 -6 0 -27 5 -29 3 -37 -6 -32
-7 5 -10 14 -7 22 5 13 -5 18 -31 15 -13 -2 -12 32 2 63 11 24 -11 38 -50 31
-22 -4 -26 -2 -15 5 13 9 13 11 0 20 -20 13 -33 13 -24 -1 4 -7 -1 -9 -12 -7
-11 2 -18 10 -16 16 1 7 -11 15 -28 19 -17 3 -33 10 -36 14 -7 12 -51 11 -59
-1 -8 -12 -45 -13 -45 -1 0 15 -32 22 -45 11 -9 -8 -15 -7 -18 2 -4 10 -6 10
-6 0z m136 -44 c0 -13 -1 -17 -4 -10 -3 6 -10 9 -16 5 -7 -4 -6 1 2 10 17 21
17 21 18 -5z m-117 2 c0 -5 -7 -10 -16 -10 -8 0 -12 5 -9 10 3 6 10 10 16 10
5 0 9 -4 9 -10z m205 -40 c3 -5 1 -10 -4 -10 -6 0 -11 5 -11 10 0 6 2 10 4 10
3 0 8 -4 11 -10z m-408 -60 c2 -11 -2 -20 -7 -20 -6 0 -10 12 -10 27 0 29 12
24 17 -7z m47 22 c2 -4 -4 -9 -15 -9 -10 -1 -19 2 -19 8 0 11 27 12 34 1z
m446 -12 c0 -5 -5 -10 -11 -10 -5 0 -7 5 -4 10 3 6 8 10 11 10 2 0 4 -4 4 -10z
m-480 -44 c0 -3 -4 -8 -10 -11 -5 -3 -10 -1 -10 4 0 6 5 11 10 11 6 0 10 -2
10 -4z m600 -12 c0 -8 -5 -12 -10 -9 -6 4 -8 11 -5 16 9 14 15 11 15 -7z
m-630 -29 c-7 -9 -15 -13 -17 -11 -7 7 7 26 19 26 6 0 6 -6 -2 -15z m663 -481
c-8 -21 -23 -17 -23 6 0 13 5 18 14 14 8 -3 12 -12 9 -20z m157 -168 c0 -2 -7
-9 -15 -16 -12 -10 -15 -10 -15 4 0 9 7 16 15 16 8 0 15 -2 15 -4z m-20 -110
c0 -2 -7 -6 -15 -10 -8 -3 -15 -1 -15 4 0 6 7 10 15 10 8 0 15 -2 15 -4z
m-845 -146 c-3 -5 -10 -10 -16 -10 -5 0 -9 5 -9 10 0 6 7 10 16 10 8 0 12 -4
9 -10z m792 -37 c-3 -3 -11 -2 -17 2 -9 6 -9 10 1 16 14 8 27 -7 16 -18z
m-757 -94 c0 -5 -7 -9 -15 -9 -9 0 -12 6 -9 15 6 15 24 11 24 -6z m194 -35 c4
-9 3 -20 0 -23 -4 -3 -9 0 -11 7 -3 6 -11 12 -19 12 -9 0 -12 5 -9 10 10 16
32 12 39 -6z m-229 -4 c3 -5 -1 -10 -10 -10 -9 0 -13 5 -10 10 3 6 8 10 10 10
2 0 7 -4 10 -10z m525 -20 c-1 -15 -19 -32 -29 -26 -19 12 -12 35 9 33 11 -1
20 -4 20 -7z m-197 -14 c4 -10 1 -13 -9 -9 -7 3 -14 9 -14 14 0 14 17 10 23
-5z m83 -1 c20 -19 5 -19 -20 0 -11 9 -14 15 -7 15 7 0 19 -7 27 -15z"/>
<path d="M1265 2430 c3 -5 8 -10 11 -10 2 0 4 5 4 10 0 6 -5 10 -11 10 -5 0
-7 -4 -4 -10z"/>
<path d="M1345 2239 c-5 -30 -3 -44 6 -50 16 -9 12 -14 -20 -24 -21 -6 -23 -5
-18 14 3 15 1 21 -6 18 -7 -2 -13 -14 -15 -26 -3 -17 4 -25 27 -34 32 -12 43
-37 16 -37 -8 0 -15 7 -15 15 0 9 -6 12 -15 8 -22 -8 -13 -26 17 -34 37 -10
49 2 44 44 -2 20 0 39 5 43 7 4 6 10 0 18 -5 6 -9 26 -9 44 2 48 -9 49 -17 1z"/>
<path d="M636 2248 c-9 -34 -8 -38 10 -38 14 0 14 3 4 15 -9 10 -9 15 -1 15 6
0 11 7 11 15 0 23 -17 18 -24 -7z"/>
<path d="M1463 2230 c-10 -11 -26 -20 -36 -20 -11 0 -17 -5 -14 -12 2 -7 11
-13 20 -13 20 0 23 -4 31 -37 7 -33 -8 -37 -36 -11 -18 16 -18 16 -12 0 3 -9
10 -17 15 -17 5 0 9 -5 9 -11 0 -5 -5 -7 -11 -3 -7 4 -10 1 -7 -7 7 -21 36
-23 55 -4 11 11 18 39 20 80 5 69 -6 88 -34 55z"/>
<path d="M654 2065 c-10 -8 -14 -14 -9 -14 6 0 19 6 29 14 11 8 15 15 10 15
-6 0 -19 -7 -30 -15z"/>
<path d="M1121 1926 c-9 -11 -6 -16 19 -24 35 -13 36 -12 11 17 -15 18 -20 19
-30 7z"/>
<path d="M508 1763 c6 -2 12 -11 12 -19 0 -9 5 -12 10 -9 6 3 10 1 10 -4 0
-14 -13 -14 -28 1 -9 9 -12 2 -13 -32 0 -25 -1 -75 -3 -112 -2 -60 0 -68 16
-68 22 0 22 -4 4 -33 -25 -37 -26 -147 -2 -147 19 0 27 92 9 103 -18 11 -7 27
17 27 13 0 18 5 14 15 -4 8 -1 22 6 31 10 11 10 18 2 26 -17 17 -15 44 4 62
15 15 8 21 -18 17 -5 0 -8 4 -8 10 0 6 9 8 20 4 18 -6 20 -2 20 33 0 23 -5 43
-12 45 -10 4 -10 8 1 15 26 18 5 42 -36 41 -21 0 -32 -3 -25 -6z m27 -191
c-11 -11 -27 17 -20 35 6 16 8 16 16 -6 5 -13 7 -26 4 -29z m5 -28 c0 -8 -5
-12 -10 -9 -6 4 -8 11 -5 16 9 14 15 11 15 -7z"/>
<path d="M1411 1714 c0 -11 3 -14 6 -6 3 7 2 16 -1 19 -3 4 -6 -2 -5 -13z"/>
<path d="M560 1569 c0 -5 5 -7 10 -4 6 3 10 8 10 11 0 2 -4 4 -10 4 -5 0 -10
-5 -10 -11z"/>
<path d="M542 1451 c4 -13 18 -16 19 -4 0 4 -5 9 -11 12 -7 2 -11 -2 -8 -8z"/>
<path d="M556 1404 c-10 -25 -7 -54 5 -54 6 0 8 9 4 20 -4 11 -2 20 4 20 6 0
11 7 11 15 0 20 -16 19 -24 -1z"/>
<path d="M496 1294 c-13 -49 9 -84 52 -84 32 0 37 24 13 59 -12 16 -21 34 -21
40 0 23 -38 11 -44 -15z m54 -28 c0 -24 -15 -26 -28 -5 -11 16 -9 19 8 19 11
0 20 -6 20 -14z"/>
<path d="M406 879 c-59 -17 -106 -82 -106 -148 0 -51 31 -89 108 -131 77 -43
102 -68 102 -101 0 -44 -54 -53 -120 -19 -22 11 -41 20 -44 20 -12 0 -47 -72
-42 -86 3 -8 27 -24 52 -36 66 -29 175 -23 222 12 52 39 79 100 45 100 -17 1
-17 1 0 11 22 13 22 47 -1 81 -23 36 -55 59 -129 97 -70 35 -92 72 -58 98 25
18 38 17 91 -9 52 -24 69 -19 94 25 13 23 13 28 -4 46 -32 35 -148 57 -210 40z
m0 -25 c-5 -12 -1 -14 17 -8 12 4 25 11 29 17 4 7 11 7 22 -2 8 -7 20 -10 26
-6 5 3 10 1 10 -5 0 -6 4 -9 9 -5 5 3 12 1 16 -5 4 -6 11 -8 16 -5 5 4 9 1 9
-4 0 -6 7 -11 15 -11 8 0 15 -4 15 -9 0 -20 -18 -20 -58 0 -32 16 -51 19 -82
14 -26 -4 -38 -11 -33 -18 3 -7 2 -9 -2 -4 -14 12 -45 -25 -45 -55 0 -16 7
-40 16 -54 14 -20 19 -22 32 -12 13 11 15 10 9 -5 -5 -13 5 -23 44 -45 28 -15
68 -41 88 -57 l37 -30 -10 -54 c-10 -48 -15 -56 -47 -73 -20 -10 -56 -19 -80
-20 -46 -2 -123 27 -113 43 6 10 54 1 69 -12 5 -5 30 -9 55 -9 38 0 51 5 73
28 55 57 29 106 -92 175 -94 53 -117 87 -101 147 6 23 18 44 26 47 7 3 14 16
14 29 0 13 5 24 11 24 6 0 8 -7 5 -16z m219 -324 c3 -5 1 -10 -4 -10 -6 0 -11
5 -11 10 0 6 2 10 4 10 3 0 8 -4 11 -10z m-11 -68 c3 -5 -1 -9 -9 -9 -8 0 -15
4 -15 9 0 4 4 8 9 8 6 0 12 -4 15 -8z m-44 -52 c0 -5 -2 -10 -4 -10 -3 0 -8 5
-11 10 -3 6 -1 10 4 10 6 0 11 -4 11 -10z"/>
<path d="M919 875 c-25 -8 -66 -33 -91 -55 -144 -127 -117 -349 54 -434 62
-31 130 -33 228 -8 l65 17 3 118 3 117 -83 -2 -83 -3 -3 -47 c-3 -46 -2 -48
22 -48 21 0 26 -5 26 -24 0 -29 -21 -38 -69 -30 -55 10 -89 34 -111 79 -28 58
-26 110 6 152 46 61 125 81 188 48 33 -18 39 -19 31 -5 -3 6 -1 10 4 10 6 0
11 -5 11 -12 0 -13 38 19 52 45 30 57 -147 115 -253 82z m156 -50 c33 -7 54
-14 47 -14 -7 -1 -10 -5 -7 -11 8 -14 -2 -12 -55 6 -71 25 -180 -1 -180 -43 0
-8 -8 -13 -17 -11 -12 2 -22 -10 -35 -44 -14 -37 -15 -48 -4 -48 7 0 13 -7 13
-15 0 -8 -9 -15 -19 -15 -16 0 -18 -5 -12 -37 3 -21 11 -43 18 -48 6 -6 12
-17 14 -25 15 -65 136 -108 240 -85 32 7 32 7 32 71 l0 64 -35 0 c-19 0 -35 4
-35 9 0 17 19 22 55 15 l35 -6 0 -73 c0 -55 -4 -76 -16 -86 -26 -21 -147 -24
-198 -5 -43 16 -116 84 -116 107 0 6 -7 8 -16 5 -13 -5 -14 -3 -7 6 5 7 7 24
3 38 -7 28 10 113 30 150 33 61 108 109 170 109 19 0 62 -6 95 -14z m-225
-245 c0 -5 -7 -7 -15 -4 -8 4 -15 8 -15 10 0 2 7 4 15 4 8 0 15 -4 15 -10z"/>
<path d="M1493 878 c-6 -7 -29 -53 -51 -103 -22 -49 -72 -159 -111 -243 -39
-83 -71 -155 -71 -158 0 -3 26 -4 58 -2 54 3 58 5 71 36 l15 32 102 0 103 0
17 -35 c16 -35 47 -47 57 -22 4 9 6 9 6 0 1 -19 61 -17 61 2 0 8 -14 44 -32
80 -22 45 -35 61 -41 52 -6 -8 -7 -6 -3 6 3 10 -21 76 -55 155 -98 220 -103
229 -126 200z m37 -101 c0 -6 9 -29 19 -51 85 -177 141 -300 141 -307 0 -20
-17 -7 -34 26 l-19 35 -135 0 c-75 0 -133 -3 -129 -6 3 -4 -1 -13 -9 -21 -8
-8 -12 -19 -9 -24 4 -5 4 -9 1 -9 -2 0 -12 -3 -22 -7 -13 -5 -16 -3 -11 10 3
8 1 18 -6 21 -8 3 -6 5 3 5 18 1 44 56 34 72 -4 8 -3 9 4 5 17 -10 92 154 80
177 -5 11 -5 17 2 17 5 0 10 -6 10 -12 0 -20 26 23 40 65 10 31 14 36 26 26 8
-6 14 -16 14 -22z"/>
<path d="M1447 632 c-31 -64 -57 -120 -57 -123 0 -4 54 -7 121 -8 66 0 119 3
117 7 -4 8 -48 103 -86 185 -14 31 -29 57 -32 57 -3 0 -32 -53 -63 -118z m91
-31 c11 -27 18 -52 14 -55 -9 -10 -92 -7 -92 3 0 18 40 101 48 101 5 0 19 -22
30 -49z"/>
</g>
</svg>
